<svg width="20" height="21" viewBox="0 0 20 21" fill="none" xmlns="http://www.w3.org/2000/svg">
<path d="M4.56602 20.7754H0.560839V7.89853H4.56602V20.7754ZM2.54189 6.17588C1.29297 6.17588 0.259375 5.09922 0.259375 3.80723C0.259375 2.0415 2.1543 0.921776 3.70469 1.82617C4.43682 2.21377 4.86748 2.98896 4.86748 3.80723C4.86748 5.09922 3.83389 6.17588 2.54189 6.17588ZM19.5101 20.7754H15.5479V14.5308C15.5479 13.0234 15.5049 11.1285 13.4377 11.1285C11.3705 11.1285 11.069 12.722 11.069 14.4016V20.7754H7.06387V7.89853H10.8968V9.66426H10.9398C11.4997 8.67373 12.7917 7.59707 14.7297 7.59707C18.7779 7.59707 19.5531 10.2672 19.5531 13.7125V20.7754H19.5101Z" fill="white"/>
</svg>
