<svg width="20" height="21" viewBox="0 0 20 21" fill="none" xmlns="http://www.w3.org/2000/svg">
<path d="M19.6 2.92695V18.0863C19.6 19.2491 18.6525 20.1535 17.5328 20.1535H6.93848C7.36914 19.4645 7.88594 18.4309 8.10127 17.6126C8.23047 17.1389 8.79033 15.1147 8.79033 15.1147C9.13486 15.7607 10.1254 16.3206 11.2021 16.3206C14.389 16.3206 16.6715 13.3921 16.6715 9.73144C16.6715 6.24307 13.8291 3.61601 10.1685 3.61601C5.60342 3.61601 3.1917 6.7168 3.1917 10.0329C3.1917 11.5833 4.00996 13.5213 5.34502 14.1242C5.51729 14.2104 5.64648 14.1673 5.68955 13.995C5.73262 13.8228 5.90488 13.1337 5.99102 12.7892C5.99102 12.703 5.99102 12.5738 5.90488 12.4877C5.47422 11.9709 5.12969 10.9804 5.12969 10.076C5.12969 7.75039 6.89541 5.46787 9.86699 5.46787C12.494 5.46787 14.3028 7.27666 14.3028 9.77451C14.3028 12.66 12.8816 14.641 10.9867 14.641C9.95313 14.641 9.17793 13.7797 9.39326 12.703C9.69473 11.4541 10.2977 10.119 10.2977 9.21465C10.2977 6.93213 7.02461 7.23359 7.02461 10.2913C7.02461 11.1957 7.36914 11.8417 7.36914 11.8417C5.99102 17.5695 5.77568 17.6557 6.07715 20.1535H6.16328H2.37344C1.21064 20.1535 0.30625 19.2491 0.30625 18.0863V2.92695C0.30625 1.80723 1.21064 0.859765 2.37344 0.859765H17.5328C18.6525 0.859765 19.6 1.80723 19.6 2.92695Z" fill="white"/>
</svg>
