<svg width="20" height="21" viewBox="0 0 20 21" fill="none" xmlns="http://www.w3.org/2000/svg">
<path d="M10 5.554C12.7132 5.554 14.9526 7.79346 14.9526 10.5066C14.9526 13.2629 12.7132 15.4593 10 15.4593C7.24375 15.4593 5.04736 13.2629 5.04736 10.5066C5.04736 7.79346 7.24375 5.554 10 5.554ZM10 13.7366C11.7657 13.7366 13.1869 12.3154 13.1869 10.5066C13.1869 8.74092 11.7657 7.31973 10 7.31973C8.19121 7.31973 6.77002 8.74092 6.77002 10.5066C6.77002 12.3154 8.23428 13.7366 10 13.7366ZM16.2877 5.38174C16.2877 4.73574 15.7709 4.21894 15.1249 4.21894C14.4789 4.21894 13.9621 4.73574 13.9621 5.38174C13.9621 6.02773 14.4789 6.54453 15.1249 6.54453C15.7709 6.54453 16.2877 6.02773 16.2877 5.38174ZM19.5607 6.54453C19.6469 8.13799 19.6469 12.9184 19.5607 14.5118C19.4746 16.0622 19.1301 17.3973 18.0104 18.5601C16.8906 19.6798 15.5125 20.0243 13.9621 20.1104C12.3687 20.1966 7.58828 20.1966 5.99482 20.1104C4.44443 20.0243 3.10937 19.6798 1.94658 18.5601C0.826855 17.3973 0.482324 16.0622 0.396191 14.5118C0.310058 12.9184 0.310058 8.13799 0.396191 6.54453C0.482324 4.99414 0.826855 3.61601 1.94658 2.49629C3.10937 1.37656 4.44443 1.03203 5.99482 0.945898C7.58828 0.859765 12.3687 0.859765 13.9621 0.945898C15.5125 1.03203 16.8906 1.37656 18.0104 2.49629C19.1301 3.61601 19.4746 4.99414 19.5607 6.54453ZM17.4936 16.1914C18.0104 14.9425 17.8812 11.9278 17.8812 10.5066C17.8812 9.12852 18.0104 6.11387 17.4936 4.82187C17.149 4.00361 16.503 3.31455 15.6848 3.01309C14.3928 2.49629 11.3781 2.62549 10 2.62549C8.57881 2.62549 5.56416 2.49629 4.31523 3.01309C3.45391 3.35762 2.80791 4.00361 2.46338 4.82187C1.94658 6.11387 2.07578 9.12852 2.07578 10.5066C2.07578 11.9278 1.94658 14.9425 2.46338 16.1914C2.80791 17.0527 3.45391 17.6987 4.31523 18.0433C5.56416 18.5601 8.57881 18.4309 10 18.4309C11.3781 18.4309 14.3928 18.5601 15.6848 18.0433C16.503 17.6987 17.1921 17.0527 17.4936 16.1914Z" fill="white"/>
</svg>
